<svg width="64" height="64" fill="none" xmlns="http://www.w3.org/2000/svg"><g clip-path="url(#a)"><path d="M19.798 29.965a.965.965 0 0 1-.456-1.816l10.064-5.386 10.007-6.257a.454.454 0 0 1 .016-.01l8.551-5.113a.965.965 0 0 1 .991 1.656l-8.543 5.108-10.026 6.27a1.085 1.085 0 0 1-.056.032l-10.093 5.402a.961.961 0 0 1-.455.114Zm28.677 24.393a.962.962 0 0 1-.499-.14l-9.268-5.605-.012-.008-9.317-5.827a1.241 1.241 0 0 1-.038-.024l-8.63-5.965a.965.965 0 1 1 1.097-1.588l8.613 5.953 9.292 5.81 9.262 5.603a.965.965 0 0 1-.5 1.791Zm3.017-41.975a.965.965 0 0 0-.965.965v34.827a.965.965 0 1 0 1.93 0V13.348a.965.965 0 0 0-.965-.965Z" fill="#C8EFFE"/><path d="M16.335 16.381c-9.02 0-16.334 7.314-16.334 16.334 0 6.077 3.318 11.378 8.241 14.191l1.11-.605 13.99-.204 1.065.821c4.935-2.81 8.262-8.117 8.262-14.203 0-9.02-7.312-16.334-16.334-16.334Z" fill="#98BCE5"/><path d="M11.184 42.306a16.26 16.26 0 0 1-3.11-9.59c0-7.628 5.229-14.035 12.297-15.832a16.366 16.366 0 0 0-4.037-.503C7.314 16.381 0 23.695 0 32.715c0 6.077 3.318 11.377 8.241 14.191l2.943-4.6Z" fill="#7BACDF"/><path d="M16.335 45.189c6.89 0 12.474-5.585 12.474-12.474 0-6.89-5.585-12.474-12.474-12.474-6.89 0-12.474 5.585-12.474 12.474s5.585 12.474 12.474 12.474Z" fill="#5F99D7"/><path d="M13.488 20.57c-5.51 1.29-9.627 6.246-9.627 12.145 0 5.899 4.117 10.854 9.627 12.146a16.291 16.291 0 0 1-5.414-12.147 16.29 16.29 0 0 1 5.414-12.145Z" fill="#3C87D0"/><path d="M24.346 43.105c0-.9-.4-1.753-1.092-2.328l-4.588-3.809-.949-.973H14.95l-.974.973-4.587 3.81a3.03 3.03 0 0 0-1.093 2.327l-.055 3.801a16.272 16.272 0 0 0 8.094 2.142c2.936 0 5.691-.774 8.073-2.13l-.062-3.813Z" fill="#ADE194"/><path d="m19.33 37.52-.664-.552-.95-.973H14.95l-.974.973-4.587 3.81a3.03 3.03 0 0 0-1.093 2.327l-.055 3.801c.968.553 2 1.008 3.08 1.356l.052-3.633a3.03 3.03 0 0 1 1.093-2.327l1.215-1.01a2.274 2.274 0 0 1 1.857-.506 4.3 4.3 0 0 0 .784.072 4.24 4.24 0 0 0 3.022-1.252c.387-.387.69-.836.901-1.326l-.915-.76Z" fill="#97DA7B"/><path d="M18.666 32.704v3.88a2.34 2.34 0 0 1-.687 1.657 2.346 2.346 0 0 1-4.003-1.657V32.69l.05-.105a5.434 5.434 0 0 0 2.309.512 5.43 5.43 0 0 0 2.283-.5l.049.106Z" fill="#FED2A4"/><path d="M19.581 21.366h-6.208l-1.927-.633a.433.433 0 0 0-.567.412v5.34l1.853 1.984h8.049l1.011-1.984v-2.908a2.21 2.21 0 0 0-2.21-2.21Z" fill="#A79BA7"/><path d="M13.976 23.625c0-.294.288-.503.568-.411l1.926.633h5.322v-.27a2.21 2.21 0 0 0-2.21-2.21h-6.21l-1.926-.634a.433.433 0 0 0-.567.412v5.34l1.853 1.984h1.244v-4.844Z" fill="#918291"/><path d="M21.792 26.485v3.473a5.457 5.457 0 1 1-10.913 0v-3.473h10.913Z" fill="#FED2A4"/><path d="M17.122 34.902a5.455 5.455 0 0 1-3.146-4.944v-3.473H10.88v3.473a5.455 5.455 0 0 0 7.005 5.231 5.419 5.419 0 0 1-.762-.287Z" fill="#FFBD86"/><path d="M51.492.057c-6.907 0-12.506 5.599-12.506 12.508 0 4.162 2.034 7.848 5.16 10.121l1.103-1.031 12.328.191 1.26.842A12.488 12.488 0 0 0 64 12.565C64 5.655 58.4.057 51.492.057Z" fill="#98BCE5"/><path d="M47.633 18.554a12.446 12.446 0 0 1-1.527-5.99c0-5.67 3.773-10.459 8.946-11.992a12.51 12.51 0 0 0-3.56-.515c-6.908 0-12.507 5.599-12.507 12.508 0 4.162 2.033 7.848 5.16 10.121l3.488-4.132Z" fill="#7BACDF"/><path d="M51.492 21.21c-4.768 0-8.646-3.88-8.646-8.646 0-4.768 3.878-8.647 8.646-8.647 4.768 0 8.647 3.879 8.647 8.647 0 4.767-3.88 8.645-8.647 8.645Z" fill="#5F99D7"/><path d="M49.323 20.934a12.457 12.457 0 0 1-3.216-8.37 12.46 12.46 0 0 1 3.216-8.372c-3.721.965-6.477 4.352-6.477 8.372 0 4.018 2.756 7.405 6.477 8.37Z" fill="#3C87D0"/><path d="M51.492 14.688a7.338 7.338 0 0 1 7.338 7.338l.007.662c-2.082 1.55-4.548 2.382-7.345 2.382-2.796 0-5.263-.833-7.346-2.384l.007-.66c0-2.026.821-3.861 2.15-5.19a7.313 7.313 0 0 1 5.189-2.148Z" fill="#F37C7C"/><path d="M51.492 3.917a5.386 5.386 0 1 1 0 10.771 5.386 5.386 0 0 1 0-10.772Z" fill="#FFE5C2"/><path d="M47.027 23.913c0-2.026.821-3.861 2.15-5.189a7.313 7.313 0 0 1 5.188-2.149c.869 0 1.703.151 2.477.428a7.32 7.32 0 0 0-5.35-2.315c-2.027 0-3.86.821-5.188 2.149a7.312 7.312 0 0 0-2.15 5.19l-.008.66a11.94 11.94 0 0 0 2.877 1.585l.004-.358Z" fill="#EE6161"/><path d="M49.854 9.159a5.39 5.39 0 0 1 3.322-4.974 5.386 5.386 0 1 0 .384 10.092 5.388 5.388 0 0 1-3.706-5.118Z" fill="#FED2A4"/><path d="M51.493 38.928c-6.908 0-12.506 5.6-12.506 12.508a12.49 12.49 0 0 0 5.169 10.129l1.192-.51 12.736.258.746.252A12.49 12.49 0 0 0 64 51.435c0-6.907-5.599-12.507-12.507-12.507Z" fill="#98BCE5"/><path d="M47.353 57.446a12.45 12.45 0 0 1-1.538-6.01c0-5.723 3.844-10.548 9.091-12.035a12.519 12.519 0 0 0-3.415-.472c-6.907 0-12.506 5.6-12.506 12.508a12.49 12.49 0 0 0 5.168 10.128l3.2-4.119Z" fill="#7BACDF"/><path d="M51.492 60.083c-4.768 0-8.646-3.88-8.646-8.647 0-4.768 3.878-8.647 8.646-8.647 4.768 0 8.647 3.879 8.647 8.647 0 4.768-3.88 8.647-8.647 8.647Z" fill="#5F99D7"/><path d="M48.935 59.696a12.458 12.458 0 0 1-3.119-8.26c0-3.167 1.175-6.057 3.115-8.26-3.523 1.093-6.085 4.382-6.085 8.26 0 3.877 2.566 7.167 6.089 8.26Z" fill="#3C87D0"/><path d="M51.492 53.561a5.386 5.386 0 1 0 0-10.772 5.386 5.386 0 0 0 0 10.772Z" fill="#FFE5C2"/><path d="M49.41 48.175a5.39 5.39 0 0 1 3.738-5.127 5.386 5.386 0 1 0 0 10.254 5.39 5.39 0 0 1-3.737-5.127Z" fill="#FED2A4"/><path d="M58.83 61.565a12.443 12.443 0 0 1-7.338 2.378 12.46 12.46 0 0 1-7.339-2.378V60.9c0-2.027.821-3.862 2.15-5.19A7.338 7.338 0 0 1 58.83 60.9v.665Z" fill="#FEE97D"/><path d="M46.947 62.725c0-2.027.82-3.862 2.15-5.19a7.313 7.313 0 0 1 5.188-2.149c.88 0 1.727.156 2.51.44a7.323 7.323 0 0 0-5.303-2.265c-2.027 0-3.86.821-5.188 2.15a7.312 7.312 0 0 0-2.15 5.189v.665c.855.62 1.794 1.136 2.794 1.527l-.002-.367Z" fill="#FEE45A"/></g><defs><clipPath id="a"><path fill="#fff" d="M0 0h64v64H0z"/></clipPath></defs></svg>