<svg width="64" height="64" fill="none" xmlns="http://www.w3.org/2000/svg"><path d="M22.346 51.477h14.297c.577-5.056 2.51-9.91 5.873-13.737a17.214 17.214 0 0 0 4.299-11.405c0-10.219-8.85-18.37-19.304-17.21-7.903.88-14.3 7.245-15.216 15.144-.6 5.172 1.086 9.948 4.174 13.466 3.362 3.829 5.297 8.685 5.877 13.742Z" fill="#FFCE29"/><path d="M14.732 25.521a.962.962 0 0 1-.843-1.066c.181-1.56.605-3.087 1.258-4.54a.962.962 0 1 1 1.754.787 13.535 13.535 0 0 0-1.102 3.976.962.962 0 0 1-1.067.843Z" fill="#fff" opacity=".4"/><path d="M33.397 60.797A3.2 3.2 0 0 1 30.195 64h-1.4a3.153 3.153 0 0 1-2.262-.94 3.169 3.169 0 0 1-.94-2.262h7.804Z" fill="#5B5B5B"/><path d="M37.187 32.69a.786.786 0 0 0-1.416-.681l-.707 1.468h-3.197a.785.785 0 0 0-.556.23l-1.345 1.35v-3.624a.785.785 0 0 0-1.341-.555l-2.52 2.52h-2.218l-.668-1.389a.786.786 0 0 0-1.417.681l5.414 11.244v.002l-.912 8.422a.787.787 0 0 0 .78.87h4.82a.786.786 0 0 0 .78-.87l-.911-8.422v-.002l5.414-11.244ZM26.43 34.97a.786.786 0 0 0 .555-.23l1.409-1.409v3.627c0 .703.851 1.047 1.341.554l2.457-2.463h2.114l-3.942 8.187h-1.741l-3.98-8.266h1.787Zm1.53 16.688.74-6.85h1.586l.741 6.85H27.96Z" fill="#EDEDED"/><path d="M38.177 53.25v5.774c0 .98-.794 1.773-1.774 1.773H22.586c-.98 0-1.773-.794-1.773-1.773V53.25c0-.98.794-1.773 1.773-1.773h13.817c.98 0 1.774.794 1.774 1.773Z" fill="#6D6D6D"/><path d="M30.781 1.288v4.174a1.287 1.287 0 1 1-2.573 0V1.288a1.287 1.287 0 1 1 2.573 0ZM18.156 3.981l2.087 3.615a1.287 1.287 0 0 1-2.229 1.286l-2.086-3.614a1.287 1.287 0 0 1 2.228-1.287ZM8.57 12.626l3.614 2.087a1.287 1.287 0 1 1-1.287 2.229l-3.614-2.087a1.287 1.287 0 0 1 1.286-2.229Zm39.522 22.819 3.615 2.087a1.287 1.287 0 1 1-1.287 2.228l-3.614-2.086a1.287 1.287 0 0 1 1.286-2.229ZM4.59 24.907h4.173a1.287 1.287 0 1 1 0 2.573H4.589a1.287 1.287 0 1 1 0-2.573Zm45.637 0H54.4a1.287 1.287 0 1 1 0 2.573h-4.173a1.287 1.287 0 1 1 0-2.573ZM7.283 37.532l3.614-2.087a1.287 1.287 0 1 1 1.287 2.229L8.569 39.76a1.287 1.287 0 0 1-1.286-2.228Zm39.523-22.819 3.614-2.087a1.287 1.287 0 1 1 1.287 2.229l-3.615 2.087a1.287 1.287 0 0 1-1.286-2.229Zm-8.06-7.117 2.087-3.615a1.287 1.287 0 0 1 2.229 1.287l-2.087 3.614a1.287 1.287 0 0 1-2.229-1.286Z" fill="#F2B816"/><path d="M39.176 54.45a.846.846 0 0 1-.847.847H20.66a.846.846 0 0 1 0-1.693h17.67c.467 0 .846.38.846.847Zm0 3.373a.846.846 0 0 1-.847.847H20.66a.846.846 0 0 1 0-1.693h17.67c.467 0 .846.379.846.846Z" fill="#5B5B5B"/><path d="M52.796 45.87h1.436v-2.156c0-.408.477-.629.788-.366L60.528 48a.479.479 0 0 1 0 .731l-5.508 4.652a.479.479 0 0 1-.788-.365V50.86h-1.436a11.767 11.767 0 0 0-7.994 3.135c-.325.3-.858.015-.793-.423.6-4.02 4-7.559 8.787-7.702Z" fill="#66D5F2"/><path d="M51.905 61.362h-1.437v2.157a.479.479 0 0 1-.788.366l-5.507-4.652a.479.479 0 0 1 0-.732l5.507-4.652a.479.479 0 0 1 .788.366v2.157h1.437c2.992 0 5.842-1.141 7.994-3.135.325-.301.858-.015.793.423-.6 4.02-4 7.559-8.787 7.702Z" fill="#F96464"/></svg>