<svg width="366" height="94" fill="none" xmlns="http://www.w3.org/2000/svg"><path d="M93.617 46.479c0-25.63-20.755-46.407-46.358-46.407C21.656.072.9 20.85.9 46.48c0 25.63 20.756 46.406 46.359 46.406S93.617 72.108 93.617 46.48Z" fill="url(#a)"/><path d="M135.956 22.065v42.23h-7.308V32.208l-9.355 3.706v-6.876l16.175-6.973h.488Zm34.349 35.305v6.925h-27.431V60.54l15.981-19.262c2.095-2.584 3.458-5.12 3.458-6.778 0-3.316-2.484-5.56-6.235-5.56-3.752 0-6.431 2.488-6.822 6.194l-6.675-1.268c.927-7.022 5.848-11.801 13.74-11.801 7.893 0 13.448 5.071 13.448 12.581 0 3.609-1.999 7.51-4.678 10.63L154.713 57.37h15.592Zm22.703-16.872h-6.333v23.797h-7.357V40.498h-5.36v-5.95h5.36V23.626h7.357V34.55h6.333v5.949Zm49.89-5.949-10.669 29.746h-6.237l-6.918-20.286-6.625 20.286h-6.188l-11.012-29.746h7.942l6.334 19.213 6.285-19.213h6.577l6.286 19.213 6.284-19.213h7.941Zm31.67 17.457h-22.996c.827 4.145 4.042 6.242 8.428 6.242 3.216 0 6.285-1.268 8.087-3.657l4.873 3.755c-2.729 4.29-7.941 6.632-13.35 6.632-8.915 0-15.64-6.291-15.64-15.556 0-9.265 7.114-15.507 15.592-15.507 8.477 0 15.2 5.949 15.2 15.263 0 .829-.096 1.756-.194 2.828Zm-7.211-5.12c-.438-4.096-3.557-6.437-7.699-6.437-4.14 0-7.161 1.902-8.086 6.437h15.785Zm41.461.731v16.678h-7.357V48.349c0-4.73-2.874-7.168-6.187-7.168-3.312 0-7.551 1.853-7.551 7.607v15.507h-7.406V34.549h7.406v4.73c1.51-3.706 6.138-5.364 9.208-5.364 7.649 0 11.887 5.071 11.887 13.703Zm22.753-7.119h-6.284v23.797h-7.406V40.498h-5.36v-5.95h5.36V23.626h7.406V34.55h6.284v5.949Zm33.667-5.949-18.466 44.278h-7.746l6.674-16.531-11.839-27.747h8.088l7.698 18.871 7.649-18.871h7.942Z" fill="#383838"/><path d="M55.322 64.148a19.422 19.422 0 0 1-22.025-4.225 19.461 19.461 0 0 1-5.41-14.53 19.468 19.468 0 0 1 6.92-13.875 19.436 19.436 0 0 1 6.97-3.748V13.044a33.795 33.795 0 0 0-13.704 5.562A33.831 33.831 0 0 0 18.05 29.491a33.862 33.862 0 0 0 5.684 41.182 33.805 33.805 0 0 0 27.293 9.393 33.792 33.792 0 0 0 13.99-4.8l-9.696-11.118ZM52.74 27.77a19.435 19.435 0 0 1 12.713 11.864 19.473 19.473 0 0 1-1.848 17.297L73.3 68.05a33.87 33.87 0 0 0 5.646-33.467 33.842 33.842 0 0 0-10.21-14.295 33.797 33.797 0 0 0-15.996-7.244V27.77Z" fill="#fff"/><defs><linearGradient id="a" x1="18.006" y1="3.32" x2="81.899" y2="97.368" gradientUnits="userSpaceOnUse"><stop offset=".01" stop-color="#F02EBC"/><stop offset=".55" stop-color="#904BD4"/><stop offset=".92" stop-color="#2DCBD7"/></linearGradient></defs></svg>