<svg width="64" height="64" fill="none" xmlns="http://www.w3.org/2000/svg"><path d="m13.659 15.62 14.006-5.095.684 1.88-14.006 5.096-.684-1.88Zm20.628-1.91 1.414-1.414 15.997 15.997-1.414 1.414L34.287 13.71Zm2.575 16.935.272-1.98 12.004 1.647-.272 1.98-12.004-1.647ZM12.543 20.401l.894-1.788L29.43 26.61l-.894 1.788L12.543 20.4Zm.671 26.344.896-1.789 14.32 7.176-.896 1.79-14.32-7.177ZM31 33h2v17h-2V33Z" fill="#68607C"/><path d="m11.733 39.449 16.85-25.988 1.678 1.088-16.85 25.988-1.678-1.088ZM34.634 50.78l15.777-16.508 1.446 1.382L36.08 52.162l-1.446-1.382Z" fill="#68607C"/><path d="m11.696 22.783 1.72-1.022L29.9 49.502l-1.72 1.022-16.483-27.741Z" fill="#68607C"/><path d="M17 44c0 1.13-.26 2.19-.74 3.13A6.977 6.977 0 0 1 10 51c-3.87 0-7-3.13-7-7s3.13-7 7-7c1.41 0 2.71.41 3.8 1.12A6.982 6.982 0 0 1 17 44Z" fill="#4E9BB9"/><path d="M37.31 49.45A6.903 6.903 0 0 1 39 54c0 3.87-3.13 7-7 7a6.995 6.995 0 0 1-6.61-9.3c.48-1.41 1.4-2.6 2.6-3.44C29.12 47.46 30.5 47 32 47c2.13 0 4.04.95 5.31 2.45Z" fill="#91CBD7"/><path d="M54 25c3.87 0 7 3.13 7 7s-3.13 7-7 7a6.87 6.87 0 0 1-4.83-1.95A6.91 6.91 0 0 1 47 32c0-.32.02-.63.07-.94.2-1.56.92-2.95 1.98-4.01A6.958 6.958 0 0 1 54 25Z" fill="#FFD086"/><path d="M38.93 29.94A6.986 6.986 0 0 1 32 36c-3.87 0-7-3.13-7-7 0-1.13.26-2.19.74-3.13A6.977 6.977 0 0 1 32 22c3.87 0 7 3.13 7 7 0 .32-.02.63-.07.94Z" fill="#ED6571"/><path d="M32 3c3.87 0 7 3.13 7 7 0 1.94-.78 3.68-2.05 4.95A6.958 6.958 0 0 1 32 17c-1.41 0-2.71-.41-3.8-1.12a6.96 6.96 0 0 1-2.78-3.49c-.27-.74-.42-1.55-.42-2.39 0-3.87 3.13-7 7-7Z" fill="#F69489"/><path d="M16.58 15.61c.27.74.42 1.55.42 2.39 0 1.13-.26 2.19-.74 3.13-.6 1.2-1.53 2.2-2.68 2.88-1.04.63-2.27.99-3.58.99-3.87 0-7-3.13-7-7s3.13-7 7-7a7 7 0 0 1 6.58 4.61Z" fill="#91CBD7"/></svg>