<svg width="253" height="64" fill="none" xmlns="http://www.w3.org/2000/svg"><g clip-path="url(#a)"><path d="M64.713 31.645c0-17.45-14.347-31.596-32.045-31.596S.622 14.195.622 31.645 14.97 63.24 32.668 63.24s32.045-14.146 32.045-31.596Z" fill="url(#b)"/><path d="M93.98 15.023v28.753h-5.05V21.929l-6.467 2.524V19.77l11.181-4.748h.337Zm23.744 24.038v4.715H98.763v-2.557l11.047-13.114c1.448-1.76 2.39-3.486 2.39-4.615 0-2.258-1.717-3.785-4.31-3.785-2.593 0-4.445 1.693-4.716 4.216l-4.614-.863c.64-4.78 4.042-8.035 9.498-8.035 5.456 0 9.296 3.453 9.296 8.566 0 2.457-1.382 5.113-3.234 7.238l-7.174 8.234h10.778Zm15.694-11.488h-4.377v16.202h-5.086V27.573h-3.706v-4.051h3.706v-7.437h5.086v7.437h4.377v4.05Zm34.487-4.05-7.375 20.252h-4.312l-4.782-13.811-4.58 13.811h-4.277l-7.612-20.252h5.49l4.378 13.08 4.345-13.08h4.547l4.345 13.08 4.344-13.08h5.489Zm21.892 11.885h-15.896c.572 2.823 2.794 4.25 5.825 4.25 2.224 0 4.345-.863 5.591-2.49l3.368 2.557c-1.886 2.921-5.489 4.515-9.228 4.515-6.162 0-10.811-4.283-10.811-10.591 0-6.309 4.918-10.558 10.778-10.558s10.507 4.05 10.507 10.392c0 .564-.066 1.195-.134 1.925Zm-4.985-3.486c-.302-2.789-2.458-4.382-5.321-4.382-2.863 0-4.951 1.295-5.59 4.382h10.911Zm28.661.498v11.355h-5.086V32.918c0-3.22-1.987-4.88-4.277-4.88s-5.22 1.261-5.22 5.18v10.557h-5.119V23.522h5.119v3.221c1.044-2.523 4.243-3.652 6.366-3.652 5.287 0 8.217 3.453 8.217 9.33Zm15.728-4.847h-4.344v16.202h-5.119V27.573h-3.706v-4.051h3.706v-7.437h5.119v7.437h4.344v4.05Zm23.272-4.05-12.765 30.146h-5.354l4.614-11.255-8.184-18.892h5.591l5.321 12.85 5.287-12.85h5.49ZM38.242 43.676a13.602 13.602 0 0 1-10.709.164 13.448 13.448 0 0 1-4.517-3.041 13.221 13.221 0 0 1-2.912-4.564 13.076 13.076 0 0 1 .569-10.543 13.277 13.277 0 0 1 3.388-4.233 13.503 13.503 0 0 1 4.818-2.551V8.88a23.562 23.562 0 0 0-9.474 3.787 23.17 23.17 0 0 0-6.927 7.41 22.741 22.741 0 0 0-1.658 19.6 23.013 23.013 0 0 0 5.587 8.44 23.43 23.43 0 0 0 8.706 5.282 23.687 23.687 0 0 0 10.16 1.113 23.596 23.596 0 0 0 9.67-3.267l-6.701-7.57Zm-1.785-24.768c2 .581 3.835 1.614 5.36 3.016a13.237 13.237 0 0 1 3.428 5.06c.728 1.927.992 3.994.77 6.038a13.126 13.126 0 0 1-2.048 5.74l6.702 7.57a22.893 22.893 0 0 0 5.059-10.876c.685-4 .286-8.11-1.156-11.91a23.055 23.055 0 0 0-7.058-9.733A23.532 23.532 0 0 0 36.457 8.88v10.027Z" fill="#fff"/></g><defs><linearGradient id="b" x1="12.447" y1="2.26" x2="55.702" y2="66.903" gradientUnits="userSpaceOnUse"><stop offset=".01" stop-color="#F02EBC"/><stop offset=".55" stop-color="#904BD4"/><stop offset=".92" stop-color="#2DCBD7"/></linearGradient><clipPath id="a"><path fill="#fff" d="M0 0h253v64H0z"/></clipPath></defs></svg>