<svg width="293" height="301" fill="none" xmlns="http://www.w3.org/2000/svg"><g opacity=".12" stroke="#EA2FBC"><path d="M96.035 284.455c-51.05 0-92.476-43.429-92.476-97.053 0-53.623 41.425-97.052 92.477-97.052 51.051 0 92.477 43.429 92.477 97.052 0 53.624-41.426 97.053-92.478 97.053Z"/><path d="M105.822 288.306c-57.132 0-103.487-48.601-103.487-108.604 0-60.004 46.355-108.605 103.487-108.605 57.133 0 103.488 48.601 103.488 108.605 0 60.003-46.355 108.604-103.488 108.604Z"/><path d="M113.774 292.157C51.237 292.157.5 238.958.5 173.284c0-65.675 50.737-118.873 113.275-118.873 62.537 0 113.274 53.198 113.274 118.873 0 65.674-50.737 118.873-113.275 118.873Z"/><path d="M125.397 294.724c-67.267 0-121.838-57.221-121.838-127.858S58.129 39.008 125.397 39.008c67.267 0 121.838 57.221 121.838 127.858s-54.571 127.858-121.838 127.858Z"/><path d="M136.713 297.291c-71.828 0-130.096-61.1-130.096-136.523 0-75.422 58.268-136.522 130.096-136.522s130.096 61.1 130.096 136.522c0 75.423-58.268 136.523-130.096 136.523Z"/><path d="M149.559 300.5c-78.922 0-142.942-67.134-142.942-150S70.637.5 149.56.5c78.921 0 142.94 67.134 142.94 150s-64.019 150-142.941 150Z"/></g></svg>