<svg width="981" height="986" fill="none" xmlns="http://www.w3.org/2000/svg"><path opacity=".2" fill-rule="evenodd" clip-rule="evenodd" d="M315.301 792.507a320.608 320.608 0 0 1-3.346-2.328l.764.81c.858.509 1.718 1.015 2.582 1.518Zm-5.699-3.39a279.69 279.69 0 0 1-1.649-1.806 323.237 323.237 0 0 1-43.437-37.985 283.333 283.333 0 0 0 4.09 5.778 300.505 300.505 0 0 0 17.092 18.159 358.841 358.841 0 0 0 23.904 15.854Zm-18.955-11.124c6.93 4.81 14.079 9.41 21.441 13.784a256.69 256.69 0 0 0 18.592 17.74 302.88 302.88 0 0 1-40.033-31.524Zm-10.334-8.698a305.519 305.519 0 0 1-4.461-4.656c.876 1.102 1.76 2.198 2.653 3.288.601.458 1.204.914 1.808 1.368Zm.977 1.978c1.246.926 2.5 1.844 3.761 2.756 15.436 15.086 32.708 28.73 51.723 40.585a260.55 260.55 0 0 0 33.785 23.214c16.782 9.689 34.198 17.282 51.945 22.862 1.855.695 3.714 1.366 5.578 2.011-24.814-6.227-49.191-15.964-72.451-29.393-29-16.743-53.899-37.861-74.341-62.035Zm-3.485-2.622c-140.383-106.97-182.857-303.968-92.396-460.649 98.21-170.105 315.917-228.274 486.263-129.925 170.345 98.349 228.823 315.974 130.613 486.079-18.575 32.172-41.424 60.34-67.419 84.203a321.264 321.264 0 0 1-8.543 8.721 300.926 300.926 0 0 1-15.385 16.373c-25.545 29.923-56.553 53.496-90.653 70.085-53.762 31.52-119.166 40.517-180.626 22.829-28.973-5.953-57.502-16.589-84.528-32.193-30.403-17.553-56.313-39.896-77.326-65.523Zm-2.701-3.347c-137.344-107.228-178.32-301.8-88.829-456.802 97.933-169.625 315.028-227.633 484.897-129.559 169.868 98.074 228.18 315.087 130.247 484.713-16.163 27.994-35.57 52.948-57.476 74.662a325.03 325.03 0 0 0 35.84-50.377c89.415-154.871 36.175-353.008-118.916-442.549-155.091-89.542-353.302-36.582-442.717 118.29-69.811 120.915-52.664 268.202 32.021 369.591a301.83 301.83 0 0 0 17.651 22.454 279.72 279.72 0 0 0 7.282 9.577Zm454.302-13.371a303.768 303.768 0 0 0 30.222-43.231c83.484-144.599 33.776-329.596-111.031-413.2-144.807-83.605-329.873-34.155-413.358 110.444-61.078 105.791-50.864 233.204 15.724 326.715a325.071 325.071 0 0 0 5.963 6.935c-53.666-85.699-59.417-197.398-5.394-290.968 77.898-134.924 250.579-181.062 385.693-103.054 135.114 78.008 181.497 250.623 103.599 385.546a284.822 284.822 0 0 1-16.21 24.977 355.123 355.123 0 0 0 4.792-4.164Zm-5.25 5.865c-.696.589-1.395 1.176-2.096 1.759-.225.301-.451.6-.677.899.929-.88 1.854-1.766 2.773-2.658Zm-2.826 1.065a283.364 283.364 0 0 0 18.628-28.243c77.621-134.443 31.404-306.447-103.233-384.18S330.02 314.684 252.398 449.128c-54.906 95.1-47.848 208.994 8.637 295.022a321.901 321.901 0 0 0 43.713 39.548c-70.34-80.821-85.379-200.385-28.876-298.252 71.197-123.317 229.023-165.486 352.515-94.189 123.491 71.298 165.884 229.065 94.687 352.382a259.78 259.78 0 0 1-19.478 29.048 351.865 351.865 0 0 0 17.734-13.824Zm-19.967 16.67a353.34 353.34 0 0 0 17.333-13.209c-.597.771-1.197 1.539-1.8 2.302a320.226 320.226 0 0 1-21.035 17.585 256.71 256.71 0 0 0 5.502-6.678Zm-.695-.733a258.524 258.524 0 0 0 21.54-31.661c70.921-122.838 28.693-279.993-94.321-351.015-123.015-71.023-280.229-29.015-351.149 93.822-57.11 98.918-40.848 220.09 31.888 300.618a326.496 326.496 0 0 0 18.769 12.683 364.803 364.803 0 0 0 8.785 4.524c-68.977-72.203-85.368-183.795-32.983-274.529 63.658-110.259 204.774-147.964 315.19-84.216 110.416 63.749 148.32 204.811 84.661 315.071a232.422 232.422 0 0 1-15.749 23.791 352.346 352.346 0 0 0 13.369-9.088Zm-15.151 11.419a353.318 353.318 0 0 0 12.853-8.572 254.933 254.933 0 0 1-6.348 7.458 321.211 321.211 0 0 1-13.072 9.205 230.361 230.361 0 0 0 6.567-8.091Zm-.684-.751a231.182 231.182 0 0 0 17.349-25.871c63.382-109.781 25.643-250.231-84.295-313.705-109.939-63.473-250.442-25.93-313.824 83.85-52.643 91.181-35.528 203.52 34.774 275.338 113.748 55.445 244.67 44.741 345.996-19.612ZM340.95 807.209c112.585 53.785 241.535 43.326 342.054-19.407a229.824 229.824 0 0 1-7.122 8.531c-97.623 63.573-226.368 71.849-334.74 11.068l-.192-.192Zm-14.056-7.096a328.71 328.71 0 0 0 13.64 8.093 230.09 230.09 0 0 0 23.868 20.618 308.326 308.326 0 0 1-27.045-15.026 256 256 0 0 1-22.082-20.149l.746.432a363.394 363.394 0 0 0 10.873 6.032Zm-66.65-55.346a330.25 330.25 0 0 1-1.382-1.513c.772.989 1.549 1.973 2.334 2.953-.319-.479-.636-.959-.952-1.44Zm-41.228-380.585c-67.348 116.649-53.514 257.92 23.957 358.519-60.292-92.7-67.615-215.037-8.6-317.255 83.762-145.078 269.44-194.69 414.724-110.81s195.158 269.487 111.397 414.566a305.265 305.265 0 0 1-25.988 38.08c16.724-17.794 31.675-37.78 44.411-59.841 89.139-154.392 36.064-351.917-118.55-441.183-154.614-89.267-352.213-36.468-441.351 117.924Zm473.686 421.664a321.547 321.547 0 0 0 20.277-16.376 284.393 284.393 0 0 1-2.773 3.3 299.776 299.776 0 0 1-28.754 24.986 255.532 255.532 0 0 0 11.25-11.91Zm-16.159 11.25a321.535 321.535 0 0 0 12.199-8.356 254.803 254.803 0 0 1-13.587 13.693 299.407 299.407 0 0 1-10.626 7.336 228.644 228.644 0 0 0 12.014-12.673Zm-16.497 15.572a227.34 227.34 0 0 0 13.349-13.546c-96.584 61.37-222.637 69.339-329.549 10.918a229.441 229.441 0 0 0 25.468 21.144c95.946 45.046 205.574 35.476 290.732-18.516Zm-291.239 19.383a308.883 308.883 0 0 1-24.947-13.15 260.264 260.264 0 0 0 27.199 18.061 259.518 259.518 0 0 0 35.55 17.079 233.887 233.887 0 0 1-18.75-9.728 233.977 233.977 0 0 1-19.052-12.262Zm333.443-50.354a300.565 300.565 0 0 1-26.458 21.51 256.074 256.074 0 0 1-42.385 32.031c-.932.634-1.869 1.262-2.81 1.883 26.365-14.259 50.64-32.837 71.653-55.424Zm-33.136 26.201a299.432 299.432 0 0 1-8.454 5.564 227.924 227.924 0 0 1-13.494 11.634 254.739 254.739 0 0 0 21.948-17.198Zm-13.138 8.477a227.858 227.858 0 0 1-23.111 18.021 257.318 257.318 0 0 1-41.572 20.244c-37.293 13.317-77.274 18.761-117.204 15.598a255.522 255.522 0 0 1-51.26-10.495 231.735 231.735 0 0 1-34.47-16.296 233.418 233.418 0 0 1-14.432-9.048c93.315 41.764 198.788 32.695 282.049-18.024Zm-48.357 32.944c-47.052 23.893-101.694 31.252-154.299 19.504a281.457 281.457 0 0 0 20.679 2.412c40.116 4 80.43-1.513 117.639-15.657a283.075 283.075 0 0 0 15.981-6.259Z" fill="url(#a)"/><defs><linearGradient id="a" x1="469.234" y1="129.993" x2="469.234" y2="447.493" gradientUnits="userSpaceOnUse"><stop stop-color="#E730BD"/><stop offset=".5" stop-color="#9A42D3"/><stop offset="1" stop-color="#1EC7D7"/></linearGradient></defs></svg>