<svg width="20" height="20" viewBox="0 0 20 20" fill="none" xmlns="http://www.w3.org/2000/svg">
<rect width="20" height="20" rx="10" fill="#1BCAD7"/>
<g clip-path="url(#clip0_38_353)">
<path d="M15.7082 7.70774L8.54155 14.8744C8.46332 14.9533 8.35682 14.9977 8.24572 14.9977C8.13462 14.9977 8.02812 14.9533 7.94989 14.8744L4.29155 11.2161C4.21267 11.1378 4.1683 11.0313 4.1683 10.9202C4.1683 10.8091 4.21267 10.7026 4.29155 10.6244L4.87489 10.0411C4.95312 9.96219 5.05962 9.91782 5.17072 9.91782C5.28182 9.91782 5.38832 9.96219 5.46655 10.0411L8.24155 12.8161L14.5332 6.52441C14.6981 6.36459 14.96 6.36459 15.1249 6.52441L15.7082 7.11607C15.7871 7.19431 15.8315 7.30081 15.8315 7.41191C15.8315 7.523 15.7871 7.6295 15.7082 7.70774Z" fill="white"/>
</g>
<defs>
<clipPath id="clip0_38_353">
<rect width="20" height="20" fill="white"/>
</clipPath>
</defs>
</svg>
