<svg width="64" height="64" viewBox="0 0 64 64" fill="none" xmlns="http://www.w3.org/2000/svg">
<path d="M22.3458 51.4773H36.6433C37.2201 46.4214 39.1536 41.5663 42.5165 37.7397C45.1914 34.6959 46.8145 30.7074 46.8145 26.3354C46.8145 16.1165 37.9645 7.96455 27.5108 9.1258C19.6076 10.0043 13.2103 16.3701 12.295 24.2693C11.6956 29.4414 13.3806 34.2173 16.4688 37.7347C19.8313 41.5639 21.7656 46.4199 22.3458 51.4773Z" fill="#FFCE29"/>
<g opacity="0.4">
<path d="M14.7322 25.5213C14.2047 25.4599 13.8269 24.9822 13.8885 24.4547C14.0704 22.8955 14.4936 21.3678 15.1467 19.9142C15.3644 19.4295 15.9335 19.2132 16.4179 19.4308C16.9025 19.6484 17.1189 20.2175 16.9012 20.7019C16.329 21.9764 15.9582 23.3142 15.7989 24.6777C15.738 25.2007 15.2649 25.5829 14.7322 25.5213Z" fill="white"/>
</g>
<path d="M33.3967 60.7974C33.3967 62.562 31.969 63.9988 30.1954 63.9988H28.7941C27.9072 63.9988 27.1091 63.6442 26.5327 63.0587C25.9474 62.4823 25.5927 61.6752 25.5927 60.7974H33.3967Z" fill="#5B5B5B"/>
<path d="M37.1869 32.6903C37.3749 32.2998 37.2106 31.8303 36.8194 31.6415C36.4304 31.4535 35.9601 31.6178 35.7706 32.009L35.0639 33.4768H31.867C31.6584 33.4768 31.4581 33.5596 31.3107 33.7076L29.9657 35.0564V31.4335C29.9657 31.1159 29.7747 30.8289 29.4809 30.7078C29.187 30.585 28.8495 30.6533 28.6246 30.8781L26.105 33.3976H23.8872L23.2186 32.009C23.0299 31.6178 22.5611 31.4535 22.1699 31.6415C21.7786 31.8303 21.6144 32.2998 21.8024 32.6903C23.7112 36.6551 25.1797 39.705 27.2157 43.934C27.2156 43.9349 27.2151 43.9355 27.2151 43.9363L26.3036 52.3581C26.2799 52.5799 26.3512 52.8016 26.5 52.9673C26.6489 53.133 26.8614 53.2281 27.0846 53.2281H31.9035C32.1267 53.2281 32.3392 53.133 32.4881 52.9673C32.637 52.8015 32.7084 52.5798 32.6845 52.3581L31.773 43.9363C31.7729 43.9355 31.7724 43.9348 31.7724 43.934C33.7741 39.7778 35.2857 36.6385 37.1869 32.6903ZM26.4305 34.9689C26.6391 34.9689 26.8386 34.886 26.986 34.7388L28.3946 33.3301V36.9568C28.3946 37.6595 29.2462 38.0041 29.7365 37.5115L32.1931 35.048H34.3074L30.365 43.235H28.6237L24.644 34.9689H26.4305ZM27.9602 51.6568L28.7014 44.8063H30.2872L31.0284 51.6568H27.9602Z" fill="#EDEDED"/>
<path d="M38.1769 53.2503V59.0238C38.1769 60.0034 37.3827 60.7974 36.4032 60.7974H22.5864C21.6067 60.7974 20.8127 60.0033 20.8127 59.0238V53.2503C20.8127 52.2707 21.6069 51.4767 22.5864 51.4767H36.4031C37.3827 51.4767 38.1769 52.2707 38.1769 53.2503Z" fill="#6D6D6D"/>
<path d="M30.7814 1.28803V5.46153C30.7814 6.17215 30.2054 6.74815 29.4948 6.74815C28.7841 6.74815 28.2081 6.17215 28.2081 5.46153V1.28803C28.2081 0.577404 28.7841 0.00140381 29.4948 0.00140381C30.2054 0.00140381 30.7814 0.577404 30.7814 1.28803Z" fill="#F2B816"/>
<path d="M18.1562 3.98138L20.243 7.59576C20.5982 8.21113 20.3875 8.99801 19.772 9.35338C19.1566 9.70863 18.3697 9.49788 18.0144 8.88238L15.9276 5.26801C15.5724 4.65263 15.7831 3.86576 16.3986 3.51038C17.0141 3.15513 17.801 3.36601 18.1562 3.98138Z" fill="#F2B816"/>
<path d="M8.56937 12.6264L12.1837 14.7132C12.7991 15.0684 13.01 15.8554 12.6547 16.4708C12.2995 17.0862 11.5125 17.297 10.8971 16.9418L7.28274 14.855C6.66737 14.4998 6.45649 13.7128 6.81174 13.0974C7.16712 12.482 7.95399 12.2712 8.56937 12.6264Z" fill="#F2B816"/>
<path d="M48.0924 35.445L51.7067 37.5318C52.3221 37.887 52.533 38.674 52.1777 39.2894C51.8225 39.9048 51.0355 40.1156 50.4201 39.7604L46.8057 37.6736C46.1904 37.3184 45.9795 36.5314 46.3347 35.916C46.6901 35.3006 47.477 35.0898 48.0924 35.445Z" fill="#F2B816"/>
<path d="M4.58937 24.9068H8.76287C9.4735 24.9068 10.0495 25.4828 10.0495 26.1934C10.0495 26.904 9.4735 27.48 8.76287 27.48H4.58937C3.87875 27.48 3.30275 26.904 3.30275 26.1934C3.30275 25.4828 3.87875 24.9068 4.58937 24.9068Z" fill="#F2B816"/>
<path d="M50.2266 24.9068H54.4001C55.1108 24.9068 55.6868 25.4828 55.6868 26.1934C55.6868 26.904 55.1108 27.48 54.4001 27.48H50.2266C49.516 27.48 48.94 26.904 48.94 26.1934C48.94 25.4828 49.516 24.9068 50.2266 24.9068Z" fill="#F2B816"/>
<path d="M7.28274 37.5317L10.8971 35.445C11.5125 35.0897 12.2994 35.3005 12.6547 35.916C13.01 36.5314 12.7992 37.3182 12.1837 37.6736L8.56937 39.7604C7.95399 40.1156 7.16712 39.9049 6.81174 39.2894C6.45649 38.674 6.66737 37.8871 7.28274 37.5317Z" fill="#F2B816"/>
<path d="M46.8057 14.7131L50.4201 12.6264C51.0355 12.2711 51.8224 12.4819 52.1777 13.0974C52.533 13.7128 52.3222 14.4996 51.7067 14.855L48.0924 16.9418C47.477 17.297 46.6901 17.0863 46.3347 16.4708C45.9795 15.8554 46.1904 15.0685 46.8057 14.7131Z" fill="#F2B816"/>
<path d="M38.7464 7.59576L40.8331 3.98138C41.1884 3.36601 41.9754 3.15513 42.5908 3.51038C43.2061 3.86563 43.417 4.65263 43.0617 5.26801L40.975 8.88238C40.6197 9.49776 39.8328 9.70863 39.2174 9.35338C38.602 8.99801 38.3911 8.21113 38.7464 7.59576Z" fill="#F2B816"/>
<path d="M39.1757 54.4507C39.1757 54.9182 38.7967 55.2971 38.3294 55.2971H20.6602C20.1927 55.2971 19.8139 54.9181 19.8139 54.4507C19.8139 53.9832 20.1929 53.6043 20.6602 53.6043H38.3294C38.7967 53.6043 39.1757 53.9832 39.1757 54.4507Z" fill="#5B5B5B"/>
<path d="M39.1757 57.8233C39.1757 58.2908 38.7967 58.6697 38.3294 58.6697H20.6602C20.1927 58.6697 19.8139 58.2907 19.8139 57.8233C19.8139 57.3558 20.1929 56.9769 20.6602 56.9769H38.3294C38.7967 56.9769 39.1757 57.3559 39.1757 57.8233Z" fill="#5B5B5B"/>
<path d="M52.7959 45.8708H54.2324V43.7138C54.2324 43.3063 54.7089 43.085 55.0202 43.348L60.5275 47.9998C60.754 48.191 60.754 48.54 60.5275 48.7314L55.0202 53.3835C54.709 53.6465 54.2324 53.4251 54.2324 53.0178V50.8609H52.7959C49.8031 50.8609 46.954 52.002 44.8019 53.9959C44.4771 54.2968 43.9435 54.0108 44.0089 53.5729C44.6081 49.5528 48.0086 46.0141 52.7959 45.8708Z" fill="#66D5F2"/>
<path d="M51.9047 61.3619H50.4682V63.5189C50.4682 63.9264 49.9917 64.1476 49.6804 63.8846L44.1731 59.2329C43.9466 59.0416 43.9466 58.6925 44.1731 58.5012L49.6804 53.8491C49.9916 53.5861 50.4682 53.8075 50.4682 54.2149V56.3717H51.9047C54.8975 56.3717 57.7466 55.2307 59.8987 53.2367C60.2235 52.9359 60.7571 53.2219 60.6917 53.6597C60.0925 57.68 56.6919 61.2186 51.9047 61.3619Z" fill="#F96464"/>
</svg>
