<svg width="64" height="64" viewBox="0 0 64 64" fill="none" xmlns="http://www.w3.org/2000/svg">
<path d="M13.659 15.6209L27.665 10.5251L28.349 12.4051L14.343 17.5009L13.659 15.6209Z" fill="#68607C"/>
<path d="M34.287 13.71L35.701 12.296L51.6983 28.2932L50.2843 29.7072L34.287 13.71Z" fill="#68607C"/>
<path d="M36.862 30.6454L37.1339 28.6644L49.1378 30.3117L48.866 32.2928L36.862 30.6454Z" fill="#68607C"/>
<path d="M12.5431 20.4015L13.4371 18.6135L29.4299 26.6099L28.5359 28.3979L12.5431 20.4015Z" fill="#68607C"/>
<path d="M13.2136 46.7453L14.11 44.9564L28.4301 52.1325L27.5337 53.9214L13.2136 46.7453Z" fill="#68607C"/>
<path d="M31 33H33V50H31V33Z" fill="#68607C"/>
<path d="M11.7331 39.4486L28.5829 13.4614L30.2609 14.5494L13.4111 40.5366L11.7331 39.4486Z" fill="#68607C"/>
<path d="M34.6342 50.78L50.4111 34.2724L51.8571 35.6544L36.0802 52.162L34.6342 50.78Z" fill="#68607C"/>
<path d="M11.6962 22.783L13.4162 21.761L29.8995 49.502L28.1795 50.524L11.6962 22.783Z" fill="#68607C"/>
<path d="M17 44C17 45.13 16.74 46.19 16.26 47.13C15.12 49.43 12.74 51 10 51C6.13 51 3 47.87 3 44C3 40.13 6.13 37 10 37C11.41 37 12.71 37.41 13.8 38.12C15.73 39.37 17 41.53 17 44Z" fill="#4E9BB9"/>
<path d="M37.31 49.45C38.37 50.67 39 52.26 39 54C39 57.87 35.87 61 32 61C28.13 61 25 57.87 25 54C25 53.19 25.14 52.42 25.39 51.7C25.87 50.29 26.79 49.1 27.99 48.26C29.12 47.46 30.5 47 32 47C34.13 47 36.04 47.95 37.31 49.45Z" fill="#91CBD7"/>
<path d="M54 25C57.87 25 61 28.13 61 32C61 35.87 57.87 39 54 39C52.12 39 50.42 38.27 49.17 37.05C47.83 35.79 47 33.99 47 32C47 31.68 47.02 31.37 47.07 31.06C47.27 29.5 47.99 28.11 49.05 27.05C50.32 25.78 52.06 25 54 25Z" fill="#FFD086"/>
<path d="M38.93 29.94C38.48 33.36 35.55 36 32 36C28.13 36 25 32.87 25 29C25 27.87 25.26 26.81 25.74 25.87C26.88 23.57 29.26 22 32 22C35.87 22 39 25.13 39 29C39 29.32 38.98 29.63 38.93 29.94Z" fill="#ED6571"/>
<path d="M32 3C35.87 3 39 6.13 39 10C39 11.94 38.22 13.68 36.95 14.95C35.68 16.22 33.94 17 32 17C30.59 17 29.29 16.59 28.2 15.88C26.93 15.06 25.94 13.84 25.42 12.39C25.15 11.65 25 10.84 25 10C25 6.13 28.13 3 32 3Z" fill="#F69489"/>
<path d="M16.58 15.61C16.85 16.35 17 17.16 17 18C17 19.13 16.74 20.19 16.26 21.13C15.66 22.33 14.73 23.33 13.58 24.01C12.54 24.64 11.31 25 10 25C6.13 25 3 21.87 3 18C3 14.13 6.13 11 10 11C13.03 11 15.6 12.92 16.58 15.61Z" fill="#91CBD7"/>
</svg>
