<svg width="64" height="64" viewBox="0 0 64 64" fill="none" xmlns="http://www.w3.org/2000/svg">
<g clip-path="url(#clip0_42_567)">
<path d="M19.7981 29.965C19.4536 29.965 19.1202 29.7801 18.9463 29.4552C18.6949 28.9853 18.872 28.4004 19.3419 28.1489L29.4063 22.7627L39.4125 16.5056C39.4179 16.5021 39.4234 16.4988 39.429 16.4955L47.9805 11.3827C48.4381 11.1093 49.0307 11.2584 49.3041 11.7158C49.5777 12.1733 49.4285 12.7658 48.9711 13.0394L40.4276 18.1472L30.402 24.4165C30.3836 24.4279 30.3648 24.4389 30.3457 24.4492L20.2525 29.8507C20.1076 29.9282 19.9517 29.965 19.7981 29.965Z" fill="#C8EFFE"/>
<path d="M48.4748 54.358C48.3047 54.358 48.1324 54.3129 47.9762 54.2186L38.7084 48.6126C38.7042 48.61 38.7003 48.6075 38.6961 48.605L29.3785 42.7784C29.3661 42.7705 29.3537 42.7624 29.3415 42.754L20.7108 36.7891C20.2722 36.4861 20.1625 35.885 20.4655 35.4465C20.7685 35.0081 21.3697 34.8982 21.8081 35.2012L30.4206 41.1536L39.7132 46.9646L48.9751 52.567C49.4311 52.8429 49.5772 53.4363 49.3014 53.8923C49.1201 54.1921 48.8014 54.358 48.4748 54.358Z" fill="#C8EFFE"/>
<path d="M51.4922 12.3833C50.9593 12.3833 50.5272 12.8154 50.5272 13.3484V48.1749C50.5272 48.7079 50.9593 49.14 51.4922 49.14C52.0252 49.14 52.4573 48.7079 52.4573 48.1749V13.3484C52.4573 12.8154 52.0252 12.3833 51.4922 12.3833Z" fill="#C8EFFE"/>
<path d="M16.335 16.3812C7.31476 16.3812 0.000778198 23.6951 0.000778198 32.7154C0.000778198 38.792 3.31935 44.093 8.24238 46.9065L9.35183 46.3008L23.3426 46.0975L24.4074 46.918C29.3417 44.1076 32.6692 38.8005 32.6692 32.7154C32.6692 23.6951 25.3565 16.3812 16.335 16.3812Z" fill="#98BCE5"/>
<path d="M11.1843 42.3059C9.22753 39.6128 8.07317 36.299 8.07317 32.7154C8.07317 25.0882 13.3026 18.6815 20.371 16.8844C19.0799 16.5562 17.7275 16.3812 16.3342 16.3812C7.31398 16.381 0 23.695 0 32.7152C0 38.7916 3.31831 44.0924 8.24109 46.9061L11.1843 42.3059Z" fill="#7BACDF"/>
<path d="M16.3351 45.1888C23.2242 45.1888 28.809 39.604 28.809 32.7149C28.809 25.8257 23.2242 20.241 16.3351 20.241C9.44595 20.241 3.86119 25.8257 3.86119 32.7149C3.86119 39.604 9.44595 45.1888 16.3351 45.1888Z" fill="#5F99D7"/>
<path d="M13.4878 20.5692C7.97718 21.8609 3.86133 26.8161 3.86133 32.7149C3.86133 38.6139 7.97756 43.5694 13.4885 44.8607C10.1647 41.8708 8.07381 37.5371 8.07381 32.7144C8.07381 27.8926 10.1643 23.5591 13.4878 20.5692Z" fill="#3C87D0"/>
<path d="M24.3463 43.105C24.3463 42.2055 23.9461 41.3524 23.2538 40.7772L18.6665 36.9684L17.717 35.9951H14.95L13.9762 36.9684L9.38888 40.7772C8.69789 41.3524 8.29642 42.2055 8.29642 43.105L8.24109 46.9061C10.6268 48.2687 13.3907 49.0485 16.3348 49.0485C19.2712 49.0485 22.0262 48.2739 24.408 46.9176L24.3463 43.105Z" fill="#ADE194"/>
<path d="M19.3303 37.5196L18.6663 36.9684L17.7168 35.9951H14.9499L13.9761 36.9684L9.38876 40.7772C8.69777 41.3524 8.2963 42.2055 8.2963 43.105L8.24097 46.9061C9.20926 47.4591 10.2407 47.9142 11.3205 48.2622L11.3733 44.6295C11.3733 43.7301 11.7748 42.8769 12.4658 42.3018L13.6808 41.2929C14.1978 40.8637 14.8777 40.664 15.5383 40.7865C15.7926 40.8336 16.0545 40.8583 16.3219 40.8583C17.4655 40.8583 18.5395 40.4128 19.344 39.6059C19.7308 39.2192 20.0337 38.7697 20.2455 38.2796L19.3303 37.5196Z" fill="#97DA7B"/>
<path d="M18.6665 32.704V36.5836C18.6665 36.7136 18.6562 36.8397 18.6356 36.9632C18.5545 37.4586 18.319 37.9013 17.9793 38.241C17.556 38.6656 16.9692 38.9281 16.322 38.9281C15.1562 38.9281 14.1885 38.0775 14.0071 36.9632C13.9865 36.8397 13.9762 36.7136 13.9762 36.5836V32.6911L14.0251 32.5856C14.7264 32.9138 15.5087 33.0978 16.3349 33.0978C17.1507 33.0978 17.924 32.9189 18.6176 32.5985L18.6665 32.704Z" fill="#FED2A4"/>
<path d="M19.5814 21.3663H13.3727L11.4464 20.7333C11.1672 20.6419 10.879 20.8503 10.879 21.145V26.4851L12.7324 28.469H20.7805L21.792 26.4851V23.577C21.792 22.3559 20.8025 21.3663 19.5814 21.3663Z" fill="#A79BA7"/>
<path d="M13.9762 23.6255C13.9762 23.3308 14.2644 23.1224 14.5437 23.2138L16.47 23.8468H21.792V23.577C21.792 22.3559 20.8025 21.3663 19.5814 21.3663H13.3727L11.4464 20.7333C11.1672 20.6419 10.879 20.8503 10.879 21.145V26.4851L12.7324 28.469H13.9762V23.6255Z" fill="#918291"/>
<path d="M21.792 26.4851V29.9581C21.792 32.1559 20.4911 34.0513 18.6176 34.9147C17.924 35.2351 17.1507 35.414 16.3349 35.414C15.5088 35.414 14.7264 35.23 14.0251 34.9018C12.1657 34.032 10.879 32.1456 10.879 29.9581V26.4851H21.792Z" fill="#FED2A4"/>
<path d="M17.1224 34.9018C15.263 34.032 13.9762 32.1456 13.9762 29.9581V26.4851H10.879V29.9581C10.879 32.1456 12.1657 34.032 14.0251 34.9018C14.7264 35.23 15.5088 35.414 16.3349 35.414C16.8735 35.414 17.393 35.3346 17.8837 35.1894C17.6212 35.1117 17.3666 35.0162 17.1224 34.9018Z" fill="#FFBD86"/>
<path d="M51.4921 0.0571289C44.5848 0.0571289 38.9861 5.65585 38.9861 12.5645C38.9861 16.7267 41.0195 20.413 44.1466 22.6863L45.2494 21.6549L57.577 21.8464L58.8362 22.6883C61.965 20.4152 63.9996 16.728 63.9996 12.5646C63.9995 5.65585 58.4008 0.0571289 51.4921 0.0571289Z" fill="#98BCE5"/>
<path d="M47.633 18.5539C46.6604 16.775 46.106 14.735 46.106 12.5645C46.106 6.89307 49.8793 2.1054 55.0518 0.572093C53.9232 0.237533 52.7283 0.0571289 51.4911 0.0571289C44.5837 0.0571289 38.985 5.65585 38.985 12.5645C38.985 16.7267 41.0184 20.413 44.1455 22.6862L47.633 18.5539Z" fill="#7BACDF"/>
<path d="M51.4917 21.2093C46.7244 21.2093 42.8459 17.3309 42.8459 12.5636C42.8459 7.79559 46.7244 3.9165 51.4917 3.9165C56.2597 3.9165 60.1388 7.79559 60.1388 12.5636C60.1389 17.3309 56.2598 21.2093 51.4917 21.2093Z" fill="#5F99D7"/>
<path d="M49.3226 20.9336C47.3242 18.7173 46.1066 15.7832 46.1066 12.5636C46.1066 9.34331 47.3242 6.40871 49.3228 4.19226C45.6018 5.15721 42.8459 8.54449 42.8459 12.5636C42.8461 16.582 45.6018 19.9688 49.3226 20.9336Z" fill="#3C87D0"/>
<path d="M51.4919 14.688C55.5452 14.688 58.8303 17.9732 58.8303 22.0265L58.8366 22.6877C56.7546 24.2383 54.2892 25.0697 51.4919 25.0697C48.6957 25.0697 46.2289 24.2368 44.1456 22.6862L44.1534 22.0265C44.1534 19.9998 44.9744 18.1649 46.3036 16.8369C47.6316 15.509 49.4652 14.688 51.4919 14.688Z" fill="#F37C7C"/>
<path d="M51.4919 3.9165C54.4669 3.9165 56.8783 6.3279 56.8783 9.30162C56.8783 12.2766 54.4669 14.688 51.4919 14.688C48.5182 14.688 46.1068 12.2766 46.1068 9.30162C46.1068 6.3279 48.5182 3.9165 51.4919 3.9165Z" fill="#FFE5C2"/>
<path d="M47.0271 23.9135C47.0271 21.8869 47.848 20.0519 49.1772 18.724C50.5052 17.396 52.3388 16.5751 54.3655 16.5751C55.2339 16.5751 56.0685 16.7262 56.8417 17.0031C55.5032 15.5784 53.6013 14.688 51.4919 14.688C49.4652 14.688 47.6316 15.509 46.3036 16.8369C44.9744 18.1649 44.1534 19.9998 44.1534 22.0265L44.1456 22.6862C45.0359 23.3488 45.9974 23.8802 47.0234 24.2718L47.0271 23.9135Z" fill="#EE6161"/>
<path d="M49.8537 9.15879C49.8537 6.91724 51.2273 4.99546 53.1756 4.18479C52.6466 4.01121 52.0789 3.9165 51.4919 3.9165C48.5182 3.9165 46.1068 6.3279 46.1068 9.30162C46.1068 12.2766 48.5182 14.688 51.4919 14.688C52.2244 14.688 52.9227 14.5413 53.5593 14.2765C51.4082 13.5705 49.8537 11.5468 49.8537 9.15879Z" fill="#FED2A4"/>
<path d="M51.4926 38.9284C44.5853 38.9284 38.9866 44.5284 38.9866 51.4358C38.9866 55.6018 41.0237 59.2915 44.1556 61.5645L45.3478 61.0545L58.084 61.3126L58.8303 61.5648C61.9628 59.2917 64 55.6018 64 51.4356C64 44.5284 58.4013 38.9284 51.4926 38.9284Z" fill="#98BCE5"/>
<path d="M47.3526 57.4463C46.3735 55.6626 45.8153 53.6151 45.8153 51.4366C45.8153 45.7132 49.6593 40.8875 54.9064 39.4013C53.8208 39.0939 52.6752 38.9292 51.491 38.9292C44.5836 38.9292 38.9849 44.5292 38.9849 51.4366C38.9849 55.6023 41.0217 59.2919 44.1533 61.565L47.3526 57.4463Z" fill="#7BACDF"/>
<path d="M51.4917 60.0827C46.7244 60.0827 42.8459 56.2036 42.8459 51.4356C42.8459 46.6677 46.7244 42.7886 51.4917 42.7886C56.2597 42.7886 60.1388 46.6677 60.1388 51.4356C60.1388 56.2036 56.2598 60.0827 51.4917 60.0827Z" fill="#5F99D7"/>
<path d="M48.9346 59.6963C46.9944 57.4928 45.8161 54.6023 45.8161 51.4355C45.8161 48.2688 46.9906 45.3794 48.9308 43.1759C45.408 44.269 42.8461 47.5576 42.8461 51.4355C42.8461 55.3134 45.4118 58.6032 48.9346 59.6963Z" fill="#3C87D0"/>
<path d="M51.4922 53.5611C54.4669 53.5611 56.8783 51.1497 56.8783 48.1751C56.8783 45.2005 54.4669 42.7891 51.4922 42.7891C48.5176 42.7891 46.1062 45.2005 46.1062 48.1751C46.1062 51.1497 48.5176 53.5611 51.4922 53.5611Z" fill="#FFE5C2"/>
<path d="M49.4108 48.1751C49.4108 45.7771 50.9817 43.7459 53.1478 43.0482C52.627 42.8805 52.0688 42.7891 51.4922 42.7891C48.5176 42.7891 46.1062 45.2005 46.1062 48.1751C46.1062 51.1497 48.5176 53.5611 51.4922 53.5611C52.0688 53.5611 52.6269 53.4696 53.1478 53.3019C50.9818 52.6043 49.4108 50.5731 49.4108 48.1751Z" fill="#FED2A4"/>
<path d="M58.8303 61.5649C56.7702 63.0614 54.234 63.9428 51.4919 63.9428C48.7498 63.9428 46.2148 63.0601 44.1534 61.5649V60.8996C44.1534 58.873 44.9744 57.0381 46.3036 55.7101C47.6316 54.3822 49.4652 53.5612 51.4919 53.5612C55.5452 53.5612 58.8303 56.8463 58.8303 60.8996V61.5649Z" fill="#FEE97D"/>
<path d="M46.9465 62.7247C46.9465 60.698 47.7675 58.8631 49.0967 57.5351C50.4246 56.2072 52.2583 55.3862 54.2849 55.3862C55.1651 55.3862 56.0121 55.5421 56.7941 55.8261C55.4583 54.4315 53.5757 53.5612 51.4919 53.5612C49.4652 53.5612 47.6316 54.3822 46.3036 55.7101C44.9744 57.0381 44.1534 58.873 44.1534 60.8996V61.5649C45.0089 62.1854 45.9485 62.7014 46.948 63.0916L46.9465 62.7247Z" fill="#FEE45A"/>
</g>
<defs>
<clipPath id="clip0_42_567">
<rect width="64" height="64" fill="white"/>
</clipPath>
</defs>
</svg>
