<svg width="366" height="94" viewBox="0 0 366 94" fill="none" xmlns="http://www.w3.org/2000/svg">
<path d="M93.617 46.4787C93.617 20.8492 72.8616 0.0722198 47.2587 0.0722198C21.6557 0.0722198 0.900452 20.8492 0.900452 46.4787C0.900452 72.1084 21.6557 92.8853 47.2587 92.8853C72.8616 92.8853 93.617 72.1084 93.617 46.4787Z" fill="url(#paint0_linear_38_561)"/>
<path d="M135.956 22.065V64.2949H128.648V32.208L119.293 35.9141V29.0383L135.468 22.065H135.956Z" fill="#383838"/>
<path d="M170.305 57.3704V64.2949H142.874V60.54L158.855 41.2782C160.95 38.6936 162.313 36.1579 162.313 34.4999C162.313 31.184 159.829 28.9408 156.078 28.9408C152.326 28.9408 149.647 31.4278 149.256 35.1339L142.581 33.866C143.508 26.8439 148.429 22.065 156.321 22.065C164.214 22.065 169.769 27.1364 169.769 34.6462C169.769 38.2547 167.77 42.1558 165.091 45.2768L154.713 57.3704H170.305Z" fill="#383838"/>
<path d="M193.008 40.4978H186.675V64.2948H179.318V40.4978H173.958V34.5486H179.318V23.6254H186.675V34.5486H193.008V40.4978Z" fill="#383838"/>
<path d="M242.898 34.5487L232.229 64.2949H225.992L219.074 44.009L212.449 64.2949H206.261L195.249 34.5487H203.191L209.525 53.7618L215.81 34.5487H222.387L228.673 53.7618L234.957 34.5487H242.898Z" fill="#383838"/>
<path d="M274.568 52.0063H251.572C252.399 56.1513 255.614 58.2481 260 58.2481C263.216 58.2481 266.285 56.9802 268.087 54.5908L272.96 58.3457C270.231 62.6369 265.019 64.9776 259.61 64.9776C250.695 64.9776 243.97 58.687 243.97 49.4217C243.97 40.1565 251.084 33.9148 259.562 33.9148C268.039 33.9148 274.762 39.864 274.762 49.1779C274.762 50.0069 274.666 50.9335 274.568 52.0063ZM267.357 46.8861C266.919 42.7898 263.8 40.4492 259.658 40.4492C255.518 40.4492 252.497 42.351 251.572 46.8861H267.357Z" fill="#383838"/>
<path d="M308.818 47.6175V64.2949H301.461V48.3489C301.461 43.6188 298.587 41.1806 295.274 41.1806C291.962 41.1806 287.723 43.0336 287.723 48.7878V64.2949H280.317V34.5487H287.723V39.2789C289.233 35.5728 293.861 33.9148 296.931 33.9148C304.58 33.9148 308.818 38.9862 308.818 47.6175Z" fill="#383838"/>
<path d="M331.571 40.4978H325.287V64.2948H317.881V40.4978H312.521V34.5486H317.881V23.6254H325.287V34.5486H331.571V40.4978Z" fill="#383838"/>
<path d="M365.238 34.5487L346.772 78.8267H339.026L345.7 62.2956L333.861 34.5487H341.949L349.647 53.4205L357.296 34.5487H365.238Z" fill="#383838"/>
<path d="M55.3219 64.1485C52.8942 65.2496 50.2662 65.8393 47.6013 65.8807C44.9362 65.9222 42.2911 65.4149 39.8303 64.39C37.3694 63.3651 35.1455 61.8447 33.2966 59.9232C31.4477 58.0017 30.0134 55.7202 29.0826 53.2205C28.1519 50.7206 27.7447 48.056 27.8863 45.3921C28.028 42.7281 28.7154 40.1218 29.9061 37.7351C31.0966 35.3483 32.7647 33.232 34.807 31.5178C36.8493 29.8037 39.2219 28.528 41.7774 27.7704V13.0436C36.8551 13.8629 32.175 15.7624 28.0727 18.6061C23.9706 21.4497 20.5481 25.1667 18.0508 29.4907C15.5535 33.8146 14.0433 38.6381 13.6287 43.6152C13.214 48.5923 13.9051 53.5995 15.6524 58.2778C17.3996 62.956 20.1598 67.189 23.7348 70.6734C27.3097 74.1577 31.6109 76.807 36.3297 78.4308C41.0485 80.0548 46.0679 80.6134 51.0279 80.0663C55.9878 79.5193 60.7652 77.8802 65.0175 75.2668L55.3219 64.1485Z" fill="white"/>
<path d="M52.7397 27.7704C55.6332 28.6249 58.2882 30.1417 60.4947 32.2007C62.7012 34.2597 64.3986 36.8045 65.4526 39.6336C66.5067 42.4627 66.8885 45.4985 66.5678 48.5007C66.2469 51.503 65.2325 54.3894 63.6046 56.9315L73.3001 68.0498C77.1021 63.463 79.6264 57.9527 80.6178 52.0761C81.6091 46.1995 81.0325 40.1651 78.946 34.5832C76.8596 29.0014 73.3374 24.0698 68.7357 20.2876C64.1341 16.5053 58.616 14.0064 52.7397 13.0436V27.7704Z" fill="white"/>
<defs>
<linearGradient id="paint0_linear_38_561" x1="18.0065" y1="3.31992" x2="81.8988" y2="97.3679" gradientUnits="userSpaceOnUse">
<stop offset="0.01" stop-color="#F02EBC"/>
<stop offset="0.55" stop-color="#904BD4"/>
<stop offset="0.92" stop-color="#2DCBD7"/>
</linearGradient>
</defs>
</svg>
