<svg width="253" height="64" viewBox="0 0 253 64" fill="none" xmlns="http://www.w3.org/2000/svg">
<g clip-path="url(#clip0_50_576)">
<path d="M64.7134 31.6447C64.7134 14.1949 50.3661 0.0488281 32.6679 0.0488281C14.9697 0.0488281 0.622467 14.1949 0.622467 31.6447C0.622467 49.0947 14.9697 63.2407 32.6679 63.2407C50.3661 63.2407 64.7134 49.0947 64.7134 31.6447Z" fill="url(#paint0_linear_50_576)"/>
<path d="M93.9803 15.0234V43.7757H88.9286V21.9293L82.4622 24.4526V19.7712L93.6435 15.0234H93.9803Z" fill="white"/>
<path d="M117.724 39.0612V43.7757H98.7626V41.2192L109.81 28.1048C111.258 26.345 112.2 24.6186 112.2 23.4898C112.2 21.2321 110.483 19.7048 107.89 19.7048C105.297 19.7048 103.445 21.3981 103.174 23.9214L98.5602 23.0582C99.2008 18.2772 102.602 15.0234 108.058 15.0234C113.514 15.0234 117.354 18.4763 117.354 23.5894C117.354 26.0462 115.972 28.7023 114.12 30.8272L106.946 39.0612H117.724Z" fill="white"/>
<path d="M133.418 27.5726H129.041V43.7748H123.955V27.5726H120.249V23.522H123.955V16.085H129.041V23.522H133.418V27.5726Z" fill="white"/>
<path d="M167.905 23.5225L160.53 43.7752H156.218L151.436 29.9635L146.856 43.7752H142.579L134.967 23.5225H140.457L144.835 36.6037L149.18 23.5225H153.727L158.072 36.6037L162.416 23.5225H167.905Z" fill="white"/>
<path d="M189.797 35.4085H173.901C174.473 38.2306 176.695 39.6582 179.726 39.6582C181.95 39.6582 184.071 38.7949 185.317 37.1681L188.685 39.7246C186.799 42.6463 183.196 44.24 179.457 44.24C173.295 44.24 168.646 39.957 168.646 33.6488C168.646 27.3405 173.564 23.0908 179.424 23.0908C185.284 23.0908 189.931 27.1414 189.931 33.4827C189.931 34.0472 189.865 34.678 189.797 35.4085ZM184.812 31.9223C184.51 29.1334 182.354 27.5398 179.491 27.5398C176.628 27.5398 174.54 28.8346 173.901 31.9223H184.812Z" fill="white"/>
<path d="M213.473 32.4203V43.7751H208.387V32.9183C208.387 29.6978 206.4 28.0377 204.11 28.0377C201.82 28.0377 198.89 29.2994 198.89 33.2171V43.7751H193.771V23.5224H198.89V26.743C199.934 24.2197 203.133 23.0908 205.256 23.0908C210.543 23.0908 213.473 26.5437 213.473 32.4203Z" fill="white"/>
<path d="M229.201 27.5726H224.857V43.7748H219.738V27.5726H216.032V23.522H219.738V16.085H224.857V23.522H229.201V27.5726Z" fill="white"/>
<path d="M252.473 23.5225L239.708 53.6692H234.354L238.968 42.4139L230.784 23.5225H236.375L241.696 36.3713L246.983 23.5225H252.473Z" fill="white"/>
<path d="M38.2417 43.6757C36.5635 44.4253 34.7468 44.8268 32.9047 44.8551C31.0625 44.8833 29.234 44.5379 27.533 43.8401C25.8319 43.1423 24.2946 42.1071 23.0165 40.7989C21.7384 39.4907 20.7469 37.9372 20.1036 36.2353C19.4602 34.5333 19.1787 32.7191 19.2766 30.9053C19.3745 29.0916 19.8497 27.3171 20.6728 25.6921C21.4957 24.067 22.6488 22.6262 24.0606 21.459C25.4723 20.292 27.1124 19.4235 28.8789 18.9076V8.88086C25.4763 9.4387 22.2412 10.732 19.4055 12.6681C16.5699 14.6042 14.204 17.1349 12.4778 20.0789C10.7514 23.0228 9.70755 26.3069 9.42091 29.6955C9.13426 33.0843 9.61198 36.4934 10.8198 39.6786C12.0276 42.8637 13.9356 45.7458 16.4068 48.1181C18.878 50.4905 21.8513 52.2942 25.1131 53.3998C28.375 54.5055 31.8448 54.8859 35.2733 54.5133C38.7019 54.1409 42.0044 53.025 44.9438 51.2456L38.2417 43.6757Z" fill="white"/>
<path d="M36.4567 18.9076C38.4569 19.4894 40.2921 20.5221 41.8174 21.924C43.3426 23.3259 44.516 25.0585 45.2446 26.9847C45.9732 28.9109 46.2371 30.9778 46.0154 33.0219C45.7937 35.066 45.0924 37.0312 43.9671 38.762L50.6692 46.3319C53.2974 43.209 55.0423 39.4572 55.7276 35.4562C56.4129 31.4551 56.0143 27.3466 54.572 23.5461C53.1297 19.7457 50.695 16.3881 47.5141 13.8129C44.3331 11.2378 40.5188 9.5364 36.4567 8.88086V18.9076Z" fill="white"/>
</g>
<defs>
<linearGradient id="paint0_linear_50_576" x1="12.4471" y1="2.26003" x2="55.7016" y2="66.9026" gradientUnits="userSpaceOnUse">
<stop offset="0.01" stop-color="#F02EBC"/>
<stop offset="0.55" stop-color="#904BD4"/>
<stop offset="0.92" stop-color="#2DCBD7"/>
</linearGradient>
<clipPath id="clip0_50_576">
<rect width="253" height="64" fill="white"/>
</clipPath>
</defs>
</svg>
