<svg width="293" height="301" viewBox="0 0 293 301" fill="none" xmlns="http://www.w3.org/2000/svg">
<g opacity="0.12">
<path d="M96.0355 284.455C44.9842 284.455 3.55851 241.026 3.55851 187.402C3.55852 133.779 44.9842 90.3501 96.0355 90.3501C147.087 90.3501 188.513 133.779 188.513 187.402C188.513 241.026 147.087 284.455 96.0355 284.455Z" stroke="#EA2FBC"/>
<path d="M105.822 288.306C48.6903 288.306 2.33508 239.705 2.33508 179.702C2.33508 119.698 48.6903 71.0972 105.822 71.0972C162.955 71.0972 209.31 119.698 209.31 179.702C209.31 239.705 162.955 288.306 105.822 288.306Z" stroke="#EA2FBC"/>
<path d="M113.774 292.157C51.2371 292.157 0.500022 238.958 0.500025 173.284C0.500028 107.609 51.2371 54.4106 113.775 54.4106C176.312 54.4106 227.049 107.609 227.049 173.284C227.049 238.958 176.312 292.157 113.774 292.157Z" stroke="#EA2FBC"/>
<path d="M125.397 294.724C58.1299 294.724 3.55871 237.503 3.55871 166.866C3.55871 96.229 58.1299 39.0078 125.397 39.0078C192.664 39.0078 247.235 96.229 247.235 166.866C247.235 237.503 192.664 294.724 125.397 294.724Z" stroke="#EA2FBC"/>
<path d="M136.713 297.291C64.8853 297.291 6.617 236.191 6.617 160.768C6.617 85.3463 64.8853 24.2461 136.713 24.2461C208.541 24.2461 266.809 85.3463 266.809 160.768C266.809 236.191 208.541 297.291 136.713 297.291Z" stroke="#EA2FBC"/>
<path d="M149.559 300.5C70.6365 300.5 6.61709 233.366 6.61709 150.5C6.61709 67.6344 70.6365 0.49999 149.559 0.499994C228.481 0.499997 292.5 67.6344 292.5 150.5C292.5 233.366 228.481 300.5 149.559 300.5Z" stroke="#EA2FBC"/>
</g>
</svg>
