<svg width="981" height="986" viewBox="0 0 981 986" fill="none" xmlns="http://www.w3.org/2000/svg">
<path opacity="0.2" fill-rule="evenodd" clip-rule="evenodd" d="M315.301 792.507C314.179 791.737 313.064 790.961 311.955 790.179C312.209 790.449 312.464 790.719 312.719 790.989C313.577 791.498 314.437 792.004 315.301 792.507ZM309.602 789.117C309.049 788.517 308.5 787.915 307.953 787.311C292.154 775.807 277.656 763.075 264.516 749.326C265.854 751.267 267.217 753.193 268.606 755.104C274.023 761.36 279.722 767.42 285.698 773.263C293.388 778.819 301.358 784.111 309.602 789.117ZM290.647 777.993C297.577 782.803 304.726 787.403 312.088 791.777C317.946 797.956 324.146 803.879 330.68 809.517C316.264 800.008 302.905 789.446 290.647 777.993ZM280.313 769.295C278.808 767.757 277.321 766.205 275.852 764.639C276.728 765.741 277.612 766.837 278.505 767.927C279.106 768.385 279.709 768.841 280.313 769.295ZM281.29 771.273C282.536 772.199 283.79 773.117 285.051 774.029C300.487 789.115 317.759 802.759 336.774 814.614C347.245 823.099 358.516 830.875 370.559 837.828C387.341 847.517 404.757 855.11 422.504 860.69C424.359 861.385 426.218 862.056 428.082 862.701C403.268 856.474 378.891 846.737 355.631 833.308C326.631 816.565 301.732 795.447 281.29 771.273ZM277.805 768.651C137.422 661.681 94.9485 464.683 185.409 308.002C283.619 137.897 501.326 79.7277 671.672 178.077C842.017 276.426 900.495 494.051 802.285 664.156C783.71 696.328 760.861 724.496 734.866 748.359C732.067 751.327 729.218 754.235 726.323 757.08C721.374 762.757 716.242 768.215 710.938 773.453C685.393 803.376 654.385 826.949 620.285 843.538C566.523 875.058 501.119 884.055 439.659 866.367C410.686 860.414 382.157 849.778 355.131 834.174C324.728 816.621 298.818 794.278 277.805 768.651ZM275.104 765.304C137.76 658.076 96.7842 463.504 186.275 308.502C284.208 138.877 501.303 80.8692 671.172 178.943C841.04 277.017 899.352 494.03 801.419 663.656C785.256 691.65 765.849 716.604 743.943 738.318C757.231 722.981 769.261 706.167 779.783 687.941C869.198 533.07 815.958 334.933 660.867 245.392C505.776 155.85 307.565 208.81 218.15 363.682C148.339 484.597 165.486 631.884 250.171 733.273C255.674 740.999 261.56 748.494 267.822 755.727C270.176 758.965 272.604 762.159 275.104 765.304ZM729.406 751.933C740.534 738.65 750.666 724.225 759.628 708.702C843.112 564.103 793.404 379.106 648.597 295.502C503.79 211.897 318.724 261.347 235.239 405.946C174.161 511.737 184.375 639.15 250.963 732.661C252.915 734.997 254.903 737.309 256.926 739.596C203.26 653.897 197.509 542.198 251.532 448.628C329.43 313.704 502.111 267.566 637.225 345.574C772.339 423.582 818.722 596.197 740.824 731.12C735.803 739.818 730.388 748.146 724.614 756.097C726.222 754.724 727.82 753.337 729.406 751.933ZM724.156 757.798C723.46 758.387 722.761 758.974 722.06 759.557C721.835 759.858 721.609 760.157 721.383 760.456C722.312 759.576 723.237 758.69 724.156 757.798ZM721.33 758.863C728.017 749.938 734.243 740.519 739.958 730.62C817.579 596.177 771.362 424.173 636.725 346.44C502.088 268.707 330.02 314.684 252.398 449.128C197.492 544.228 204.55 658.122 261.035 744.15C274.191 758.455 288.783 771.714 304.748 783.698C234.408 702.877 219.369 583.313 275.872 485.446C347.069 362.129 504.895 319.96 628.387 391.257C751.878 462.555 794.271 620.322 723.074 743.639C717.157 753.888 710.641 763.577 703.596 772.687C709.636 768.282 715.551 763.672 721.33 758.863ZM701.363 775.533C707.26 771.32 713.041 766.916 718.696 762.324C718.099 763.095 717.499 763.863 716.896 764.626C710.11 770.812 703.09 776.675 695.861 782.211C697.727 780.022 699.562 777.796 701.363 775.533ZM700.668 774.8C708.509 764.939 715.72 754.377 722.208 743.139C793.129 620.301 750.901 463.146 627.887 392.124C504.872 321.101 347.658 363.109 276.738 485.946C219.628 584.864 235.89 706.036 308.626 786.564C314.691 790.977 320.949 795.209 327.395 799.247C330.311 800.799 333.24 802.307 336.18 803.771C267.203 731.568 250.812 619.976 303.197 529.242C366.855 418.983 507.971 381.278 618.387 445.026C728.803 508.775 766.707 649.837 703.048 760.097C698.227 768.448 692.962 776.382 687.299 783.888C691.817 780.966 696.275 777.936 700.668 774.8ZM685.517 786.219C689.857 783.46 694.142 780.602 698.37 777.647C696.296 780.181 694.179 782.667 692.022 785.105C687.734 788.287 683.375 791.356 678.95 794.31C681.191 791.673 683.381 788.976 685.517 786.219ZM684.833 785.468C691.108 777.355 696.912 768.726 702.182 759.597C765.564 649.816 727.825 509.366 617.887 445.892C507.948 382.419 367.445 419.962 304.063 529.742C251.42 620.923 268.535 733.262 338.837 805.08C452.585 860.525 583.507 849.821 684.833 785.468ZM340.95 807.209C453.535 860.994 582.485 850.535 683.004 787.802C680.69 790.714 678.315 793.558 675.882 796.333C578.259 859.906 449.514 868.182 341.142 807.401C341.078 807.337 341.014 807.273 340.95 807.209ZM326.894 800.113C330.234 802.205 333.625 804.245 337.066 806.231C338.22 806.897 339.375 807.556 340.534 808.206C347.931 815.54 355.893 822.436 364.402 828.824C358.296 825.823 352.249 822.598 346.27 819.147C343.258 817.407 340.287 815.624 337.357 813.798C329.544 807.463 322.179 800.731 315.275 793.649C315.524 793.793 315.772 793.937 316.021 794.081C319.625 796.162 323.25 798.172 326.894 800.113ZM260.244 744.767C259.782 744.264 259.321 743.76 258.862 743.254C259.634 744.243 260.411 745.227 261.196 746.207C260.877 745.728 260.56 745.248 260.244 744.767ZM219.016 364.182C151.668 480.831 165.502 622.102 242.973 722.701C182.681 630.001 175.358 507.664 234.373 405.446C318.135 260.368 503.813 210.756 649.097 294.636C794.381 378.516 844.255 564.123 760.494 709.202C752.68 722.736 743.979 735.44 734.506 747.282C751.23 729.488 766.181 709.502 778.917 687.441C868.056 533.049 814.981 335.524 660.367 246.258C505.753 156.991 308.154 209.79 219.016 364.182ZM692.702 785.846C699.653 780.683 706.42 775.222 712.979 769.47C712.062 770.578 711.138 771.678 710.206 772.77C701.1 781.76 691.491 790.095 681.452 797.756C685.312 793.924 689.064 789.953 692.702 785.846ZM676.543 797.096C680.666 794.409 684.734 791.623 688.742 788.74C684.366 793.497 679.833 798.063 675.155 802.433C671.661 804.958 668.118 807.404 664.529 809.769C668.672 805.72 672.681 801.495 676.543 797.096ZM660.046 812.668C664.658 808.364 669.113 803.847 673.395 799.122C576.811 860.492 450.758 868.461 343.846 810.04C351.724 817.606 360.22 824.68 369.314 831.184C465.26 876.23 574.888 866.66 660.046 812.668ZM368.807 832.051C361.032 828.397 353.346 824.386 345.77 820.013C345.132 819.644 344.495 819.273 343.86 818.901C352.429 825.403 361.5 831.443 371.059 836.962C382.64 843.648 394.523 849.332 406.609 854.041C400.276 851.111 394.019 847.87 387.859 844.313C381.246 840.495 374.893 836.4 368.807 832.051ZM702.25 781.697C693.8 789.403 684.963 796.578 675.792 803.207C662.698 815.434 648.476 826.136 633.407 835.238C632.475 835.872 631.538 836.5 630.597 837.121C656.962 822.862 681.237 804.284 702.25 781.697ZM669.114 807.898C666.325 809.802 663.506 811.657 660.66 813.462C656.298 817.531 651.795 821.41 647.166 825.096C654.754 819.794 662.083 814.057 669.114 807.898ZM655.976 816.375C648.625 822.909 640.902 828.922 632.865 834.396C619.602 842.405 605.681 849.17 591.293 854.64C554 867.957 514.019 873.401 474.089 870.238C456.878 868.521 439.703 865.046 422.829 859.743C411.097 855.341 399.569 849.919 388.359 843.447C383.4 840.584 378.589 837.565 373.927 834.399C467.242 876.163 572.715 867.094 655.976 816.375ZM607.619 849.319C560.567 873.212 505.925 880.571 453.32 868.823C460.202 869.885 467.1 870.688 473.999 871.235C514.115 875.235 554.429 869.722 591.638 855.578C597.023 853.655 602.353 851.568 607.619 849.319Z" fill="url(#paint0_linear_43_569)"/>
<defs>
<linearGradient id="paint0_linear_43_569" x1="469.234" y1="129.993" x2="469.234" y2="447.493" gradientUnits="userSpaceOnUse">
<stop stop-color="#E730BD"/>
<stop offset="0.500038" stop-color="#9A42D3"/>
<stop offset="1" stop-color="#1EC7D7"/>
</linearGradient>
</defs>
</svg>
